<?xml version="1.0" encoding="iso-8859-1"?>
<!-- Generator: Adobe Illustrator 19.0.0, SVG Export Plug-In . SVG Version: 6.00 Build 0)  -->
<svg version="1.1" id="Capa_1" xmlns="http://www.w3.org/2000/svg" xmlns:xlink="http://www.w3.org/1999/xlink" x="0px" y="0px"
	 viewBox="0 0 512 512" style="enable-background:new 0 0 512 512;" xml:space="preserve">
<path style="fill:#DDDDDD;" d="M329.865,436.064H183.843c-4.143,0-7.501-3.357-7.501-7.501s3.359-7.501,7.501-7.501h146.022
	c4.143,0,7.501,3.357,7.501,7.501C337.366,432.705,334.009,436.064,329.865,436.064z"/>
<path style="fill:#585A60;" d="M178.141,388.94h-12.872c-7.109,0-12.873,5.765-12.873,12.873v53.492
	c0,7.11,5.764,12.875,12.873,12.875h12.872c7.109,0,12.872-5.765,12.872-12.875v-53.492
	C191.013,394.705,185.251,388.94,178.141,388.94z"/>
<path style="fill:#414356;" d="M172.398,455.306v-53.492c0-5.87,3.935-10.815,9.308-12.361c-1.133-0.327-2.326-0.512-3.565-0.512
	H165.27c-7.109,0-12.873,5.765-12.873,12.873v53.492c0,7.11,5.764,12.875,12.873,12.875c14.07,0,14.144,0.151,16.438-0.512
	C176.333,466.122,172.398,461.178,172.398,455.306z"/>
<path style="fill:#989DA0;" d="M219.467,355.871v6.169c0,6.888,0,65.025,0,72.341c0,7.228,5.858,13.086,13.086,13.086h46.894
	c7.228,0,13.086-5.858,13.086-13.086v-32.312c0-17.594,0-29.653,0-46.198H219.467z"/>
<path style="fill:#838384;" d="M239.469,434.381v-32.312V362.04v-6.169h-20.002v6.169c0,6.888,0,65.025,0,72.341
	c0,7.228,5.858,13.086,13.086,13.086h20.002C245.327,447.467,239.469,441.608,239.469,434.381z"/>
<rect x="219.463" y="348.243" style="fill:#585A60;" width="73.071" height="40.701"/>
<polygon style="fill:#414356;" points="239.469,362.04 239.469,355.871 219.467,355.871 219.467,362.04 219.467,388.94 
	239.469,388.94 "/>
<g>
	<path style="fill:#6EDCF9;" d="M425.097,419.41l-24.301-42.092c-1.34-2.32-1.34-5.181,0-7.501l24.301-42.09
		c2.071-3.589,6.659-4.816,10.247-2.745c3.588,2.071,4.817,6.659,2.745,10.247l-22.135,38.34l22.135,38.342
		c2.071,3.589,0.842,8.175-2.745,10.247C431.755,424.227,427.168,422.998,425.097,419.41z"/>
	<path style="fill:#6EDCF9;" d="M480.191,423.162c-1.272,0-2.562-0.324-3.744-1.006c-3.588-2.071-4.817-6.658-2.745-10.247
		l22.135-38.342l-22.135-38.34c-2.071-3.588-0.842-8.175,2.745-10.247c3.588-2.069,8.175-0.843,10.247,2.745l24.301,42.09
		c1.34,2.32,1.34,5.181,0,7.501l-24.301,42.092C485.305,421.816,482.784,423.162,480.191,423.162z"/>
	<path style="fill:#6EDCF9;" d="M80.4,423.162c-1.272,0-2.562-0.324-3.744-1.006c-3.588-2.071-4.817-6.658-2.745-10.247
		l22.135-38.342l-22.135-38.34c-2.071-3.588-0.842-8.175,2.745-10.247c3.588-2.069,8.175-0.843,10.247,2.745l24.301,42.09
		c1.34,2.32,1.34,5.181,0,7.501L86.903,419.41C85.514,421.816,82.993,423.162,80.4,423.162z"/>
	<path style="fill:#6EDCF9;" d="M31.809,423.162c-2.592,0-5.114-1.345-6.503-3.752L1.005,377.318c-1.34-2.32-1.34-5.181,0-7.501
		l24.301-42.09c2.071-3.589,6.659-4.816,10.247-2.745c3.588,2.071,4.817,6.659,2.745,10.247l-22.135,38.34l22.135,38.342
		c2.071,3.589,0.842,8.175-2.745,10.247C34.371,422.838,33.081,423.162,31.809,423.162z"/>
</g>
<path style="fill:#D63322;" d="M256.002,43.804c-71.614,0-129.665,58.05-129.665,129.661v169.321c0,7.228,5.86,13.086,13.087,13.086
	h233.153c7.227,0,13.087-5.858,13.087-13.086V173.465C385.664,101.854,327.615,43.804,256.002,43.804z"/>
<path style="fill:#C1291E;" d="M146.338,342.785V173.465c0-68.245,52.724-124.174,119.664-129.281
	c-3.301-0.251-6.636-0.38-10.002-0.38c-71.614,0-129.665,58.05-129.665,129.661v169.321c0,7.228,5.86,13.086,13.087,13.086h20.002
	C152.199,355.871,146.338,350.012,146.338,342.785z"/>
<path style="fill:#DDDDDD;" d="M442.867,247.939c-2.068-5.878-7.624-9.813-13.859-9.813h-46.346v29.383h35.943l16.829,45.111
	c0.614,1.738,1.538,3.272,2.665,4.599c5.05-8.871,15.49-13.54,25.826-10.705C463.696,303.747,464.934,307.688,442.867,247.939z"/>
<path style="fill:#BFC0C1;" d="M424.38,267.51h-5.774l16.829,45.111c0.614,1.738,1.538,3.272,2.665,4.599
	c2.662-4.678,6.93-8.32,12.055-10.179l-11.059-29.642C436.962,271.207,430.137,267.611,424.38,267.51z"/>
<path style="fill:#DDDDDD;" d="M48.85,302.859l20.282-54.92c2.069-5.878,7.624-9.813,13.858-9.813h46.346v29.383H93.395
	l-16.83,45.111c-0.613,1.738-1.537,3.272-2.665,4.599c-3.919-6.884-11.308-11.537-19.797-11.537c-2.09,0-4.107,0.305-6.029,0.832
	C48.175,305.295,48.423,304.068,48.85,302.859z"/>
<path style="fill:#BFC0C1;" d="M84.516,247.669c1.48-4.205,4.482-7.555,8.252-9.542h-9.776c-6.234,0-11.789,3.935-13.858,9.813
	l-20.282,54.92c-0.427,1.209-0.675,2.436-0.776,3.655c1.923-0.527,3.939-0.832,6.029-0.832c2.967,0,5.796,0.579,8.393,1.613
	L84.516,247.669z"/>
<polygon style="fill:#EA473B;" points="278.778,238.126 233.222,238.126 126.336,238.126 126.336,290.833 233.222,290.833 
	278.778,290.833 385.664,290.833 385.664,238.126 "/>
<rect x="126.339" y="238.126" style="fill:#D63322;" width="20.002" height="52.707"/>
<path style="fill:#6EDCF9;" d="M256.001,209.548c-35.135,0-63.72-28.584-63.72-63.719s28.584-63.719,63.72-63.719
	s63.718,28.584,63.718,63.719S291.136,209.548,256.001,209.548z"/>
<path style="fill:#52C7E2;" d="M212.283,145.829c0-31.732,23.319-58.114,53.718-62.928c-3.261-0.516-6.599-0.791-10.002-0.791
	c-35.135,0-63.72,28.584-63.72,63.719s28.584,63.719,63.72,63.719c3.403,0,6.741-0.275,10.002-0.791
	C235.602,203.944,212.283,177.561,212.283,145.829z"/>
<circle style="fill:#FFA92C;" cx="255.999" cy="290.834" r="22.778"/>
<path style="fill:#EF9614;" d="M253.224,290.832c0-8.991,5.212-16.764,12.778-20.467c-3.019-1.478-6.413-2.31-10.001-2.31
	c-12.581,0-22.779,10.197-22.779,22.776c0,12.582,10.199,22.778,22.779,22.778c3.589,0,6.981-0.832,10.001-2.31
	C258.436,307.597,253.224,299.826,253.224,290.832z"/>
<circle style="fill:#585A60;" cx="56.109" cy="325.46" r="22.779"/>
<path style="fill:#414356;" d="M53.328,325.461c0-8.991,5.212-16.765,12.777-20.468c-3.02-1.478-6.414-2.31-10.003-2.31
	c-12.579,0-22.777,10.199-22.777,22.778c0,12.58,10.199,22.778,22.777,22.778c3.589,0,6.982-0.832,10.003-2.311
	C58.54,342.224,53.328,334.452,53.328,325.461z"/>
<path style="fill:#49B5CE;" d="M256.001,114.829c-17.094,0-31.002,13.906-31.002,31.001s13.908,31.001,31.002,31.001
	c17.095,0,31.002-13.906,31.002-31.001S273.096,114.829,256.001,114.829z"/>
<path style="fill:#3FAABC;" d="M245.001,145.829c0-13.595,8.8-25.165,21.001-29.336c-3.141-1.073-6.502-1.664-10.002-1.664
	c-17.094,0-31.002,13.906-31.002,31.001s13.908,31.001,31.002,31.001c3.5,0,6.861-0.591,10.002-1.664
	C253.803,170.994,245.001,159.424,245.001,145.829z"/>
<g>
	<circle style="fill:#585A60;" cx="256.849" cy="145.832" r="10.062"/>
	<circle style="fill:#585A60;" cx="456.9" cy="325.46" r="22.779"/>
</g>
<path style="fill:#414356;" d="M466.896,304.993c-15.051-7.37-32.78,3.592-32.78,20.468c0,16.886,17.738,27.833,32.78,20.468
	C449.882,337.599,449.888,313.319,466.896,304.993z"/>
<path style="fill:#585A60;" d="M346.732,388.94H333.86c-7.109,0-12.873,5.765-12.873,12.873v53.492
	c0,7.11,5.764,12.875,12.873,12.875h12.872c7.109,0,12.872-5.765,12.872-12.875v-53.492
	C359.604,394.705,353.842,388.94,346.732,388.94z"/>
<path style="fill:#414356;" d="M340.989,455.306v-53.492c0-5.87,3.935-10.815,9.308-12.361c-1.133-0.327-2.326-0.512-3.565-0.512
	h-12.872c-7.109,0-12.873,5.765-12.873,12.873v53.492c0,7.11,5.764,12.875,12.873,12.875c14.07,0,14.144,0.151,16.438-0.512
	C344.924,466.122,340.989,461.178,340.989,455.306z"/>
<g>
</g>
<g>
</g>
<g>
</g>
<g>
</g>
<g>
</g>
<g>
</g>
<g>
</g>
<g>
</g>
<g>
</g>
<g>
</g>
<g>
</g>
<g>
</g>
<g>
</g>
<g>
</g>
<g>
</g>
</svg>
